M48
; DRILL file {KiCad 7.0.9} date Mon Dec 11 12:03:36 2023
; FORMAT={-:-/ absolute / inch / decimal}
; #@! TF.CreationDate,2023-12-11T12:03:36+11:00
; #@! TF.GenerationSoftware,Kicad,Pcbnew,7.0.9
; #@! TF.FileFunction,Plated,1,4,PTH
FMAT,2
INCH
; #@! TA.AperFunction,Plated,PTH,ComponentDrill
T1C0.0098
; #@! TA.AperFunction,Plated,PTH,ViaDrill
T2C0.0118
; #@! TA.AperFunction,Plated,PTH,ComponentDrill
T3C0.0118
; #@! TA.AperFunction,Plated,PTH,ComponentDrill
T4C0.0236
; #@! TA.AperFunction,Plated,PTH,ComponentDrill
T5C0.0394
; #@! TA.AperFunction,Plated,PTH,ComponentDrill
T6C0.0472
; #@! TA.AperFunction,Plated,PTH,ComponentDrill
T7C0.0598
%
G90
G05
T1
X9.454Y-5.9702
X9.454Y-6.0214
X9.454Y-6.0725
X9.454Y-6.1237
X9.5052Y-5.9702
X9.5052Y-6.0214
X9.5052Y-6.0725
X9.5052Y-6.1237
X9.874Y-7.6914
X9.874Y-7.7426
X9.874Y-7.7938
X9.874Y-7.845
X9.9252Y-7.6914
X9.9252Y-7.7426
X9.9252Y-7.7938
X9.9252Y-7.845
X10.0827Y-4.0689
X10.0827Y-4.1201
X10.1339Y-4.0689
X10.1339Y-4.1201
X10.185Y-4.0689
X10.185Y-4.1201
X10.2362Y-4.0689
X10.2362Y-4.1201
T2
X1.0814Y-14.0136
X1.1822Y-13.8998
X1.1929Y-14.0787
X1.2853Y-13.9821
X1.3582Y-13.8069
X1.3743Y-13.8876
X1.4373Y-13.8041
X1.4944Y-4.8876
X1.4944Y-13.7388
X1.5219Y-4.7265
X1.557Y-13.8344
X1.5593Y-5.0895
X1.5975Y-4.5754
X1.6054Y-13.8049
X1.6172Y-13.6466
X1.6562Y-4.784
X1.6885Y-4.6305
X1.692Y-5.5301
X1.6924Y-13.738
X1.6936Y-5.8159
X1.7054Y-5.2789
X1.7054Y-6.3781
X1.7062Y-6.199
X1.7093Y-5.9954
X1.7117Y-4.388
X1.7165Y-4.3346
X1.7239Y-6.5372
X1.7282Y-4.8655
X1.7381Y-4.9809
X1.7404Y-8.6596
X1.7444Y-13.5557
X1.7471Y-6.7592
X1.7479Y-6.9706
X1.753Y-7.1706
X1.7546Y-4.6895
X1.757Y-7.3521
X1.7723Y-4.4722
X1.7928Y-7.5399
X1.796Y-8.5612
X1.8015Y-4.5514
X1.8184Y-13.6344
X1.8278Y-5.3958
X1.8578Y-5.9104
X1.8597Y-7.7265
X1.8641Y-13.4313
X1.8661Y-8.7165
X1.8664Y-4.2832
X1.8727Y-6.0978
X1.8743Y-5.1754
X1.8778Y-5.7364
X1.8798Y-6.2754
X1.881Y-5.4482
X1.894Y-4.788
X1.9007Y-4.4195
X1.9007Y-6.4325
X1.9215Y-7.2726
X1.9223Y-6.8884
X1.9235Y-4.614
X1.9235Y-6.6785
X1.9271Y-7.0903
X1.9341Y-13.5073
X1.9345Y-4.2305
X1.942Y-8.0029
X1.9424Y-7.4596
X1.9491Y-8.608
X1.9668Y-4.4762
X1.9688Y-5.5864
X1.9885Y-5.3033
X1.9893Y-13.3159
X1.9995Y-8.4313
X2.0003Y-8.6821
X2.0007Y-8.9336
X2.0066Y-5.8451
X2.0085Y-6.9738
X2.0085Y-8.2852
X2.0101Y-7.3328
X2.0113Y-6.7738
X2.0117Y-4.2238
X2.0141Y-7.1931
X2.0145Y-6.5344
X2.02Y-6.0521
X2.02Y-6.212
X2.0227Y-7.5506
X2.0231Y-6.3876
X2.0278Y-7.6321
X2.0448Y-4.2836
X2.0495Y-7.8817
X2.0578Y-7.7584
X2.0585Y-13.3915
X2.0782Y-9.1958
X2.0948Y-7.9065
X2.096Y-8.1836
X2.1192Y-5.4872
X2.1211Y-4.1623
X2.1418Y-9.3413
X2.1467Y-8.0411
X2.1526Y-8.3443
X2.1566Y-8.823
X2.166Y-5.738
X2.1676Y-8.5825
X2.1677Y-7.7588
X2.1696Y-6.6793
X2.1786Y-6.4336
X2.1814Y-6.2911
X2.1826Y-6.1206
X2.1908Y-13.2903
X2.1944Y-9.0529
X2.2011Y-8.2143
X2.2026Y-5.623
X2.2066Y-13.2084
X2.2089Y-7.4848
X2.2117Y-6.9352
X2.2126Y-13.1732
X2.2145Y-7.1238
X2.2168Y-7.2675
X2.2172Y-5.997
X2.2538Y-8.299
X2.2641Y-7.9065
X2.2795Y-13.0906
X2.2841Y-6.4675
X2.311Y-13.0866
X2.3164Y-3.9376
X2.3278Y-3.373
X2.3369Y-5.4078
X2.3416Y-5.4844
X2.3471Y-8.1447
X2.3743Y-3.7907
X2.3841Y-12.9699
X2.3858Y-13.0591
X2.3889Y-3.6462
X2.3898Y-13.0906
X2.394Y-8.0687
X2.396Y-8.0234
X2.4089Y-8.1982
X2.4113Y-8.8132
X2.4133Y-8.658
X2.4133Y-8.921
X2.4145Y-9.4431
X2.4156Y-8.4533
X2.4156Y-9.0301
X2.418Y-9.1604
X2.4449Y-3.9685
X2.4567Y-12.9961
X2.457Y-8.2069
X2.4617Y-8.3419
X2.47Y-7.9202
X2.4708Y-5.7494
X2.4803Y-12.9567
X2.4822Y-12.8423
X2.4995Y-8.1649
X2.5034Y-3.2746
X2.5042Y-3.8364
X2.5156Y-5.5986
X2.542Y-9.7073
X2.5499Y-8.1092
X2.5503Y-3.6876
X2.5613Y-12.7399
X2.5625Y-3.5372
X2.5637Y-7.9494
X2.5747Y-9.9289
X2.5759Y-8.2002
X2.5814Y-9.3665
X2.5865Y-8.5809
X2.5877Y-8.3738
X2.592Y-9.0864
X2.5936Y-12.6364
X2.5999Y-10.1986
X2.6015Y-12.9132
X2.618Y-8.76
X2.629Y-8.9962
X2.6306Y-8.8832
X2.6361Y-10.0569
X2.6487Y-5.6427
X2.653Y-10.5966
X2.6585Y-10.7754
X2.6772Y-5.2835
X2.6778Y-12.8269
X2.6853Y-6.5391
X2.6869Y-9.623
X2.6893Y-6.3895
X2.6971Y-6.2246
X2.6995Y-6.0502
X2.7007Y-5.8415
X2.7137Y-12.538
X2.7205Y-5.7087
X2.7306Y-8.6935
X2.7322Y-9.4667
X2.7334Y-12.4391
X2.7389Y-8.3336
X2.7393Y-9.8474
X2.7412Y-10.4561
X2.7475Y-8.0356
X2.7483Y-8.5088
X2.7495Y-12.3403
X2.7499Y-9.7911
X2.7585Y-9.964
X2.7591Y-10.2307
X2.7609Y-12.7045
X2.7708Y-8.9714
X2.7739Y-10.125
X2.779Y-9.3427
X2.7865Y-7.9577
X2.7865Y-11.7691
X2.7932Y-3.2517
X2.7971Y-11.8765
X2.7992Y-10.0787
X2.7995Y-9.2155
X2.8015Y-12.623
X2.8137Y-10.6903
X2.8271Y-10.2545
X2.8282Y-10.0214
X2.8467Y-11.9797
X2.853Y-5.9423
X2.8542Y-10.5549
X2.8656Y-9.2092
X2.8684Y-6.4403
X2.8719Y-6.2848
X2.8723Y-6.1265
X2.8767Y-10.3702
X2.8786Y-10.6171
X2.8857Y-9.3742
X2.8956Y-10.8344
X2.9082Y-12.2584
X2.9105Y-8.597
X2.9117Y-9.0541
X2.9133Y-12.0777
X2.9152Y-8.4124
X2.9164Y-8.2356
X2.9219Y-12.512
X2.9247Y-12.4179
X2.9251Y-6.5195
X2.9251Y-10.4128
X2.9393Y-7.9801
X2.9416Y-10.1242
X2.9511Y-8.8494
X2.9511Y-8.9041
X2.955Y-9.9073
X2.9574Y-9.7647
X2.9763Y-11.7821
X2.9803Y-11.7441
X2.9826Y-11.7006
X2.9849Y-10.3988
X2.9948Y-10.4336
X3.0Y-11.8425
X3.0117Y-8.1679
X3.0239Y-11.0557
X3.0267Y-11.8714
X3.0302Y-10.6884
X3.0318Y-8.4588
X3.033Y-11.0065
X3.0377Y-8.9947
X3.0385Y-10.5285
X3.0512Y-11.9488
X3.055Y-10.2852
X3.0574Y-10.2384
X3.0641Y-11.1577
X3.0664Y-8.0423
X3.068Y-8.7147
X3.0709Y-12.0984
X3.0715Y-10.5927
X3.0719Y-8.0084
X3.0798Y-9.123
X3.0814Y-8.3498
X3.083Y-11.9789
X3.0844Y-10.3335
X3.0897Y-8.0687
X3.092Y-9.2982
X3.0952Y-9.9706
X3.0963Y-10.7702
X3.1105Y-10.3474
X3.1113Y-9.7663
X3.1137Y-11.0411
X3.116Y-5.4025
X3.1208Y-10.8061
X3.1211Y-8.0073
X3.1365Y-8.549
X3.1389Y-7.421
X3.1597Y-8.814
X3.1609Y-7.7994
X3.1664Y-8.6777
X3.1708Y-8.0679
X3.1719Y-5.1521
X3.1739Y-3.8443
X3.1747Y-8.8573
X3.1751Y-4.4061
X3.1759Y-4.2671
X3.1767Y-4.0817
X3.1767Y-4.7029
X3.1822Y-4.8439
X3.1834Y-4.5486
X3.1837Y-4.9864
X3.1845Y-7.9738
X3.1877Y-7.8734
X3.1885Y-8.2415
X3.1894Y-10.015
X3.1963Y-8.96
X3.1987Y-10.051
X3.1991Y-10.4651
X3.2003Y-5.4014
X3.2007Y-10.4179
X3.2008Y-10.9882
X3.2046Y-8.373
X3.2054Y-11.1691
X3.218Y-9.6006
X3.2188Y-10.3025
X3.2243Y-5.4817
X3.2247Y-10.9549
X3.2251Y-5.3655
X3.2255Y-7.4588
X3.2274Y-10.1328
X3.2298Y-10.8974
X3.231Y-6.962
X3.233Y-9.0234
X3.2341Y-5.6191
X3.2345Y-6.3848
X3.2353Y-6.7954
X3.2358Y-10.4199
X3.2365Y-6.2293
X3.2365Y-6.5521
X3.2365Y-7.1726
X3.2381Y-7.6813
X3.24Y-11.1317
X3.242Y-9.1506
X3.2424Y-10.671
X3.2507Y-9.5659
X3.2523Y-8.5021
X3.2562Y-7.8403
X3.2562Y-10.5864
X3.2566Y-9.6608
X3.2585Y-9.3073
X3.2597Y-9.2002
X3.2637Y-9.8647
X3.2648Y-3.4057
X3.2696Y-3.6191
X3.281Y-9.823
X3.2814Y-5.8836
X3.2837Y-10.71
X3.3015Y-9.7214
X3.311Y-11.0039
X3.3137Y-6.1405
X3.3211Y-8.1419
X3.3294Y-10.6084
X3.333Y-3.7388
X3.3334Y-7.9061
X3.3479Y-4.1647
X3.3479Y-4.8888
X3.3503Y-3.975
X3.3503Y-9.9458
X3.3511Y-5.0494
X3.3515Y-4.3057
X3.3585Y-8.7447
X3.3605Y-7.7254
X3.3621Y-8.6498
X3.3711Y-5.7104
X3.3767Y-4.7888
X3.379Y-4.6494
X3.3802Y-4.4734
X3.3802Y-5.184
X3.3818Y-8.3691
X3.3819Y-10.4567
X3.3853Y-11.023
X3.3857Y-4.9864
X3.3881Y-8.8876
X3.3885Y-5.2762
X3.3904Y-8.2096
X3.3904Y-10.8092
X3.3936Y-3.8836
X3.3937Y-10.4921
X3.396Y-7.9994
X3.3979Y-10.0466
X3.3991Y-11.1049
X3.4011Y-10.571
X3.4016Y-10.9764
X3.4023Y-6.8636
X3.403Y-7.0765
X3.405Y-4.4399
X3.406Y-8.0691
X3.4078Y-9.9002
X3.4082Y-9.0533
X3.4089Y-4.7773
X3.4093Y-4.6053
X3.4105Y-4.2691
X3.4129Y-10.349
X3.416Y-10.2517
X3.4164Y-4.0939
X3.4196Y-5.9691
X3.4231Y-9.212
X3.4232Y-9.8496
X3.4252Y-8.2008
X3.4271Y-9.4911
X3.4286Y-7.1793
X3.4302Y-6.7262
X3.431Y-7.5573
X3.4314Y-5.4049
X3.4326Y-7.4045
X3.4341Y-10.2226
X3.4345Y-7.6293
X3.4357Y-6.1738
X3.4369Y-6.9608
X3.4373Y-6.3328
X3.4397Y-6.4998
X3.4397Y-6.9073
X3.4409Y-5.8661
X3.4416Y-5.5671
X3.4483Y-8.0077
X3.4515Y-9.6124
X3.4515Y-6.0027
X3.4528Y-10.9213
X3.4637Y-3.5636
X3.4696Y-10.6722
X3.4743Y-9.7533
X3.4778Y-3.3506
X3.4818Y-8.0663
X3.4861Y-9.8557
X3.4865Y-5.8171
X3.4882Y-10.6969
X3.4952Y-9.1573
X3.4967Y-10.525
X3.5093Y-7.8628
X3.5164Y-3.7423
X3.5196Y-5.0525
X3.5204Y-5.6159
X3.5208Y-10.0962
X3.5211Y-4.3033
X3.5276Y-5.689
X3.531Y-4.8557
X3.5341Y-4.4773
X3.5353Y-3.9557
X3.5373Y-9.7462
X3.5381Y-4.1391
X3.5389Y-4.6478
X3.5448Y-9.9549
X3.5563Y-9.8862
X3.5672Y-5.7472
X3.5897Y-9.9947
X3.5961Y-10.3242
X3.6015Y-7.0797
X3.6034Y-7.4667
X3.6038Y-6.8612
X3.6058Y-3.3663
X3.6058Y-5.4852
X3.6196Y-5.9147
X3.6299Y-7.8679
X3.633Y-3.6281
X3.635Y-9.8594
X3.64Y-9.7132
X3.6424Y-9.76
X3.6496Y-9.122
X3.6648Y-9.0336
X3.6772Y-10.6954
X3.6778Y-5.8565
X3.6806Y-6.7077
X3.6912Y-9.1864
X3.7263Y-9.8643
X3.7286Y-5.6569
X3.737Y-5.9652
X3.7562Y-9.5801
X3.7672Y-3.5021
X3.7672Y-9.71
X3.781Y-9.7935
X3.8129Y-2.834
X3.8211Y-9.6628
X3.8228Y-5.9921
X3.8231Y-9.9289
X3.8243Y-9.8785
X3.8307Y-9.1732
X3.8345Y-9.0427
X3.8369Y-5.6143
X3.8479Y-2.9254
X3.8495Y-3.2132
X3.8534Y-3.0671
X3.8543Y-7.8661
X3.8574Y-2.7726
X3.8701Y-7.6732
X3.8798Y-3.3706
X3.8819Y-7.7677
X3.8898Y-7.811
X3.896Y-10.0466
X3.9094Y-7.6772
X3.9381Y-5.9069
X3.9534Y-3.521
X3.9589Y-9.7049
X3.9751Y-5.5025
X3.9884Y-5.8976
X4.003Y-9.812
X4.007Y-5.9655
X4.0129Y-9.9159
X4.0227Y-2.6825
X4.0369Y-5.5671
X4.0428Y-9.7781
X4.0507Y-3.1604
X4.0562Y-10.097
X4.0589Y-5.373
X4.0601Y-3.036
X4.0637Y-2.8691
X4.0708Y-3.7171
X4.0715Y-4.7958
X4.0731Y-3.3277
X4.0786Y-4.6262
X4.0967Y-5.1884
X4.0995Y-5.0132
X4.1007Y-8.4809
X4.1142Y-7.8071
X4.1417Y-7.8898
X4.1487Y-3.4781
X4.1487Y-5.8183
X4.1499Y-3.8628
X4.1798Y-5.4462
X4.1802Y-5.8643
X4.1929Y-4.7047
X4.2026Y-5.6777
X4.203Y-8.5785
X4.2188Y-7.8045
X4.2223Y-4.4891
X4.2369Y-5.5175
X4.2377Y-4.112
X4.2412Y-8.1443
X4.2601Y-5.321
X4.2696Y-5.3675
X4.2751Y-4.2596
X4.2795Y-6.7638
X4.2806Y-3.6864
X4.283Y-8.3789
X4.2861Y-4.5738
X4.2953Y-7.8562
X4.2987Y-8.4573
X4.2991Y-5.1191
X4.3007Y-3.7773
X4.3038Y-4.9596
X4.3062Y-5.1632
X4.3189Y-8.1929
X4.3346Y-10.9803
X4.3465Y-10.9134
X4.3491Y-5.7632
X4.3494Y-10.629
X4.3504Y-5.0748
X4.3583Y-8.748
X4.366Y-5.0202
X4.3711Y-7.3391
X4.3719Y-8.4305
X4.3727Y-8.221
X4.3877Y-7.8474
X4.3877Y-8.4781
X4.3908Y-7.7289
X4.3937Y-8.2717
X4.4046Y-5.6238
X4.4152Y-4.0061
X4.4337Y-5.4616
X4.4369Y-4.4557
X4.4369Y-8.1077
X4.4393Y-10.5966
X4.4404Y-3.4903
X4.4408Y-3.1069
X4.4444Y-7.971
X4.4448Y-4.0356
X4.4449Y-4.1299
X4.4519Y-8.2907
X4.457Y-8.047
X4.4593Y-8.3845
X4.4613Y-2.9336
X4.47Y-5.3128
X4.4723Y-4.8793
X4.492Y-4.2234
X4.5Y-9.148
X4.503Y-3.9136
X4.5054Y-7.9171
X4.5079Y-10.3189
X4.5089Y-5.1112
X4.5097Y-7.725
X4.5219Y-10.3608
X4.5276Y-5.0246
X4.5377Y-7.5561
X4.5452Y-7.1773
X4.5452Y-7.3832
X4.5471Y-6.7454
X4.5475Y-6.9777
X4.5591Y-10.6496
X4.5605Y-8.4049
X4.563Y-4.9961
X4.5735Y-4.9679
X4.5771Y-8.1927
X4.5818Y-3.7376
X4.5881Y-7.7943
X4.5899Y-7.9598
X4.6011Y-3.0265
X4.6019Y-3.4088
X4.6063Y-8.0669
X4.6066Y-10.5006
X4.6148Y-8.9147
X4.6176Y-4.7403
X4.6318Y-9.1884
X4.633Y-7.9136
X4.6373Y-10.6029
X4.6389Y-2.8502
X4.6432Y-7.8825
X4.6593Y-8.0143
X4.6739Y-7.6443
X4.6865Y-7.8958
X4.689Y-10.0945
X4.6912Y-10.2738
X4.6952Y-4.8281
X4.7066Y-7.4592
X4.7165Y-7.9647
X4.7172Y-7.2974
X4.718Y-7.6836
X4.7204Y-10.662
X4.7211Y-6.6289
X4.7211Y-7.0809
X4.7223Y-6.8777
X4.7349Y-7.7195
X4.7526Y-7.9659
X4.7578Y-10.1852
X4.7648Y-10.6395
X4.7656Y-9.058
X4.766Y-7.534
X4.7688Y-4.6183
X4.7857Y-10.5033
X4.7889Y-8.8116
X4.7987Y-10.6943
X4.8251Y-4.6876
X4.829Y-9.0966
X4.8349Y-9.1545
X4.8369Y-10.4502
X4.8676Y-7.4458
X4.8782Y-7.5958
X4.881Y-10.0482
X4.8881Y-10.5317
X4.8979Y-4.5096
X4.9156Y-7.8624
X4.929Y-10.5903
X4.9397Y-10.3754
X4.9412Y-11.0458
X4.9452Y-11.2049
X4.9519Y-7.9151
X4.9528Y-10.6811
X4.9534Y-10.8836
X4.9613Y-10.6132
X4.9625Y-8.9702
X4.9735Y-9.5289
X4.9767Y-4.5781
X4.99Y-9.6391
X4.996Y-9.1108
X4.9975Y-9.2675
X5.0042Y-10.6254
X5.0042Y-10.7167
X5.0062Y-4.3884
X5.0243Y-9.1454
X5.0302Y-7.3431
X5.0315Y-7.437
X5.0389Y-10.4529
X5.0782Y-7.4521
X5.081Y-11.0714
X5.0822Y-10.6923
X5.083Y-10.9136
X5.0975Y-11.299
X5.1141Y-4.4714
X5.122Y-7.7953
X5.1282Y-9.4978
X5.1286Y-4.2254
X5.1408Y-7.9037
X5.1417Y-11.2559
X5.1668Y-9.0612
X5.1767Y-7.3069
X5.1774Y-10.8525
X5.1969Y-7.874
X5.1999Y-9.1923
X5.2087Y-11.1496
X5.2204Y-9.1062
X5.2223Y-4.3309
X5.2251Y-9.5716
X5.2267Y-4.0191
X5.2302Y-3.6443
X5.2315Y-10.6209
X5.2424Y-7.4336
X5.2436Y-10.5872
X5.2479Y-10.6915
X5.2641Y-9.6269
X5.2715Y-11.3014
X5.2756Y-7.3543
X5.2782Y-10.4718
X5.2786Y-9.171
X5.2835Y-10.7874
X5.2861Y-7.7321
X5.2873Y-3.8577
X5.2873Y-10.7238
X5.2877Y-3.6785
X5.311Y-11.2402
X5.318Y-7.8136
X5.32Y-12.8084
X5.3341Y-12.4163
X5.3345Y-9.4608
X5.3373Y-12.5683
X5.3377Y-11.5529
X5.3393Y-4.1702
X5.3408Y-11.7679
X5.3408Y-12.0604
X5.3432Y-12.234
X5.3511Y-11.3966
X5.3534Y-12.971
X5.3554Y-11.084
X5.3593Y-10.8895
X5.393Y-9.1095
X5.394Y-7.5352
X5.4026Y-11.16
X5.4042Y-10.7573
X5.4054Y-10.5246
X5.4089Y-7.3136
X5.4089Y-13.1443
X5.4113Y-7.6486
X5.4129Y-9.0262
X5.4176Y-10.5951
X5.4188Y-9.536
X5.4326Y-10.699
X5.4377Y-11.258
X5.4424Y-3.9628
X5.4424Y-10.5317
X5.4444Y-9.1907
X5.4582Y-13.2888
X5.4593Y-9.5108
X5.4818Y-3.7891
X5.4869Y-7.7391
X5.4873Y-10.3911
X5.4873Y-12.7006
X5.4904Y-10.7628
X5.4952Y-12.1262
X5.4956Y-9.3805
X5.4979Y-7.4899
X5.505Y-3.6258
X5.5054Y-12.3183
X5.507Y-9.5175
X5.5117Y-12.4616
X5.5164Y-11.9447
X5.5176Y-11.6592
X5.5219Y-11.4447
X5.5227Y-7.4486
X5.5255Y-10.9856
X5.5306Y-10.6699
X5.5322Y-12.8671
X5.5381Y-10.8557
X5.557Y-10.5943
X5.5582Y-9.0419
X5.5641Y-12.5411
X5.5645Y-9.7328
X5.5672Y-7.5458
X5.5704Y-12.697
X5.5715Y-11.1238
X5.5767Y-10.4273
X5.5787Y-13.3307
X5.5827Y-10.5118
X5.5866Y-10.2795
X5.5866Y-10.3661
X5.5908Y-13.0419
X5.6034Y-7.4332
X5.6142Y-12.5315
X5.6142Y-12.7126
X5.6196Y-9.6061
X5.6227Y-7.6136
X5.6298Y-13.1872
X5.6302Y-9.2616
X5.646Y-9.4557
X5.6605Y-10.447
X5.6688Y-9.5624
X5.6743Y-7.3714
X5.6767Y-10.9041
X5.6802Y-9.5994
X5.6814Y-7.6502
X5.6877Y-12.558
X5.6948Y-10.7525
X5.703Y-12.2179
X5.7038Y-10.512
X5.7126Y-10.59
X5.7137Y-10.2671
X5.7211Y-11.4092
X5.7211Y-12.0549
X5.7294Y-10.6659
X5.7349Y-7.5978
X5.7362Y-7.5677
X5.7402Y-11.3268
X5.7432Y-7.4332
X5.7471Y-9.1128
X5.7558Y-7.5112
X5.7574Y-9.1932
X5.7755Y-10.5608
X5.7759Y-9.8994
X5.7932Y-10.3045
X5.7944Y-9.2742
X5.7967Y-12.7136
X5.7986Y-10.3616
X5.7992Y-11.3622
X5.8196Y-7.4907
X5.8235Y-7.2876
X5.8302Y-9.458
X5.8353Y-10.8132
X5.846Y-12.0604
X5.8519Y-10.9793
X5.8523Y-11.1844
X5.8688Y-10.8687
X5.8747Y-7.258
X5.8747Y-12.264
X5.887Y-7.3461
X5.8904Y-11.4407
X5.8924Y-10.4242
X5.9168Y-12.5636
X5.9208Y-9.7722
X5.9215Y-7.5604
X5.9239Y-10.2092
X5.93Y-7.3413
X5.9574Y-10.1608
X5.9646Y-12.6063
X5.9652Y-9.171
X5.9774Y-7.5923
X5.9792Y-7.3856
X6.0026Y-11.2939
X6.0105Y-12.4025
X6.0129Y-12.1313
X6.0208Y-10.8848
X6.0211Y-12.7061
X6.0259Y-12.5439
X6.0263Y-10.3797
X6.0282Y-10.7805
X6.0314Y-7.1742
X6.0394Y-10.9449
X6.055Y-7.7636
X6.0562Y-9.5254
X6.0692Y-7.2474
X6.0755Y-10.0277
X6.083Y-11.7561
X6.0916Y-10.9411
X6.1007Y-7.4588
X6.1011Y-9.1006
X6.1239Y-12.2718
X6.142Y-7.0612
X6.1496Y-7.6063
X6.1496Y-8.2283
X6.1593Y-12.5742
X6.1648Y-12.4057
X6.1814Y-11.9848
X6.194Y-10.8084
X6.1969Y-7.4724
X6.205Y-12.7427
X6.2109Y-10.2765
X6.2172Y-8.9514
X6.2302Y-7.1301
X6.231Y-9.421
X6.2314Y-10.9899
X6.2365Y-10.358
X6.2416Y-10.9279
X6.2416Y-10.8584
X6.2432Y-7.6325
X6.2519Y-6.9533
X6.2538Y-11.6415
X6.2554Y-12.925
X6.2585Y-10.81
X6.2586Y-9.0066
X6.2589Y-11.2415
X6.2613Y-10.6687
X6.2648Y-12.7486
X6.2652Y-12.8029
X6.2715Y-11.0525
X6.3042Y-9.0836
X6.3121Y-10.9088
X6.315Y-12.7087
X6.3196Y-12.6084
X6.3247Y-11.8411
X6.3337Y-13.0514
X6.3408Y-7.0234
X6.3424Y-9.3108
X6.3444Y-10.6419
X6.3491Y-12.1758
X6.3507Y-11.5037
X6.3558Y-10.1671
X6.3637Y-9.558
X6.3676Y-7.5049
X6.3701Y-11.0512
X6.3869Y-12.7947
X6.3873Y-12.6765
X6.3889Y-13.1825
X6.3893Y-11.1014
X6.4007Y-6.7777
X6.4082Y-9.0856
X6.4109Y-9.6037
X6.4148Y-10.2478
X6.4271Y-12.2769
X6.4302Y-11.673
X6.4331Y-12.5709
X6.4373Y-8.9388
X6.444Y-6.9143
X6.4562Y-10.9951
X6.4569Y-7.5845
X6.4645Y-9.1958
X6.4664Y-10.9293
X6.4684Y-12.9269
X6.4774Y-11.7805
X6.4782Y-11.3624
X6.4802Y-10.8116
X6.4822Y-7.6254
X6.4873Y-12.0403
X6.4999Y-13.1592
X6.5034Y-10.758
X6.5038Y-6.5915
X6.5093Y-13.051
X6.5133Y-9.4214
X6.5196Y-11.8533
X6.5341Y-9.0403
X6.5444Y-9.2769
X6.5495Y-12.3604
X6.557Y-11.5301
X6.5578Y-12.5675
X6.5621Y-12.1368
X6.5696Y-10.1348
X6.5837Y-11.101
X6.5987Y-6.7053
X6.6093Y-8.36
X6.6113Y-11.6439
X6.6113Y-12.7112
X6.6188Y-7.4919
X6.6294Y-8.8632
X6.6294Y-10.851
X6.633Y-9.1017
X6.6341Y-9.4769
X6.6357Y-12.4773
X6.6467Y-9.9836
X6.657Y-8.5647
X6.6614Y-13.126
X6.6625Y-8.7025
X6.6672Y-11.9616
X6.6684Y-13.049
X6.6751Y-8.4096
X6.6802Y-11.7427
X6.6857Y-12.7502
X6.6877Y-12.2175
X6.692Y-6.2986
X6.6969Y-10.7047
X6.7003Y-11.2084
X6.7078Y-6.5356
X6.7082Y-8.958
X6.7176Y-13.2073
X6.7188Y-10.9746
X6.7294Y-12.5785
X6.7311Y-5.4488
X6.7318Y-12.0643
X6.7664Y-12.3344
X6.7743Y-10.5998
X6.7778Y-11.2876
X6.7905Y-7.5542
X6.7983Y-9.0356
X6.7991Y-8.762
X6.7995Y-9.4143
X6.8066Y-11.8242
X6.8164Y-7.5966
X6.818Y-12.8695
X6.8294Y-8.462
X6.8306Y-11.0793
X6.8345Y-13.0765
X6.8349Y-8.6045
X6.8386Y-5.6772
X6.8452Y-8.3136
X6.8487Y-9.1269
X6.8499Y-9.3691
X6.8499Y-12.6541
X6.853Y-9.9328
X6.8622Y-13.1181
X6.8625Y-9.8175
X6.8641Y-11.38
X6.8676Y-11.921
X6.8782Y-6.2116
X6.8904Y-13.2454
X6.8967Y-12.6577
X6.9034Y-12.2415
X6.9371Y-10.5216
X6.9483Y-11.1848
X6.9534Y-7.4616
X6.9652Y-11.4825
X6.9654Y-5.3457
X6.9669Y-5.4949
X6.9853Y-8.9754
X6.9904Y-12.7557
X6.9944Y-9.3982
X7.0082Y-13.1057
X7.0089Y-12.5151
X7.0133Y-12.8159
X7.0148Y-10.4529
X7.0157Y-5.748
X7.0157Y-5.8898
X7.0251Y-9.2679
X7.031Y-11.2927
X7.0393Y-12.097
X7.046Y-13.3317
X7.0491Y-13.0647
X7.0553Y-7.5277
X7.0605Y-12.4084
X7.0652Y-9.6545
X7.0664Y-9.5305
X7.0723Y-9.7675
X7.0747Y-12.8651
X7.0912Y-7.5695
X7.1282Y-9.3722
X7.1282Y-11.3954
X7.1373Y-12.6175
X7.1466Y-11.6476
X7.1496Y-12.685
X7.1535Y-13.374
X7.1664Y-9.1399
X7.1668Y-12.9588
X7.1755Y-12.734
X7.1794Y-10.3738
X7.1849Y-13.2179
X7.1885Y-9.3927
X7.1963Y-12.2557
X7.2101Y-7.4399
X7.2164Y-13.2372
X7.2229Y-10.3264
X7.2495Y-10.3451
X7.2519Y-13.0317
X7.2523Y-13.534
X7.2559Y-11.6969
X7.2605Y-9.6108
X7.2621Y-12.588
X7.2727Y-9.2458
X7.2731Y-9.4202
X7.2956Y-13.0899
X7.3169Y-5.3177
X7.3239Y-9.4825
X7.3349Y-13.0667
X7.3369Y-12.8777
X7.3377Y-11.5848
X7.3398Y-5.2705
X7.3446Y-13.3925
X7.3704Y-7.61
X7.3763Y-12.4482
X7.3771Y-7.4569
X7.3818Y-13.1872
X7.3885Y-13.2376
X7.3971Y-12.7643
X7.4003Y-13.4427
X7.4471Y-10.3088
X7.4528Y-8.9843
X7.4629Y-7.7151
X7.4654Y-5.347
X7.4763Y-9.3844
X7.4921Y-9.0512
X7.4936Y-10.2502
X7.5085Y-13.2939
X7.5089Y-12.9927
X7.5105Y-9.688
X7.5223Y-12.8848
X7.5276Y-9.1142
X7.5337Y-9.449
X7.54Y-13.1415
X7.5408Y-12.6344
X7.5448Y-7.5372
X7.5515Y-7.3773
X7.5633Y-9.4391
X7.5669Y-9.122
X7.5709Y-10.6102
X7.5709Y-10.748
X7.5945Y-9.1024
X7.6142Y-10.748
X7.6181Y-10.6102
X7.6192Y-12.984
X7.6263Y-10.121
X7.6318Y-10.1643
X7.6378Y-9.2872
X7.6432Y-13.2596
X7.6455Y-10.2358
X7.6575Y-10.7165
X7.6601Y-13.11
X7.6617Y-12.7403
X7.6732Y-10.6181
X7.6735Y-9.5407
X7.6763Y-9.5903
X7.6782Y-9.347
X7.7133Y-9.1974
X7.746Y-10.0155
X7.7471Y-13.1265
X7.7491Y-9.1675
X7.7511Y-9.8947
X7.7511Y-12.847
X7.752Y-13.1959
X7.7652Y-7.3474
X7.7912Y-12.984
X7.8023Y-9.0565
X7.8129Y-8.8608
X7.8231Y-10.0801
X7.8255Y-9.4384
X7.8302Y-8.9454
X7.8345Y-9.2447
X7.8349Y-8.6805
X7.8609Y-9.225
X7.8637Y-7.5226
X7.874Y-9.4488
X7.879Y-9.5517
X7.8865Y-9.8691
X7.89Y-9.9002
X7.8976Y-9.984
X7.8979Y-9.751
X7.9203Y-9.8024
X7.9397Y-8.5521
X7.9456Y-9.1466
X7.9507Y-8.7254
X7.9523Y-9.8604
X7.9523Y-9.9285
X7.9574Y-10.0663
X7.9945Y-6.4646
X7.9963Y-9.3789
X7.9971Y-9.738
X8.0062Y-8.871
X8.0079Y-5.374
X8.0113Y-9.0273
X8.0236Y-7.4488
X8.0428Y-9.4714
X8.0444Y-8.6285
X8.0472Y-7.3228
X8.0491Y-8.4147
X8.0512Y-7.0906
X8.063Y-7.7126
X8.0827Y-7.374
X8.0853Y-10.2415
X8.0916Y-9.9254
X8.1181Y-9.8425
X8.1223Y-10.351
X8.1299Y-6.4646
X8.1378Y-7.1496
X8.1381Y-9.8136
X8.1389Y-9.258
X8.1408Y-9.649
X8.1428Y-8.5214
X8.1508Y-5.4185
X8.1614Y-5.4654
X8.1693Y-7.9882
X8.1719Y-10.6431
X8.1877Y-9.7218
X8.2008Y-7.0906
X8.2047Y-7.9921
X8.2129Y-9.3336
X8.2211Y-10.1045
X8.2298Y-7.4876
X8.2322Y-8.2793
X8.2361Y-10.6978
X8.252Y-9.6969
X8.2717Y-6.4685
X8.2731Y-9.1143
X8.2778Y-8.4025
X8.2948Y-10.2683
X8.3188Y-10.497
X8.3268Y-7.3583
X8.3345Y-9.6088
X8.3465Y-7.7624
X8.3526Y-9.2029
X8.3731Y-8.9073
X8.3865Y-8.1151
X8.4075Y-6.4685
X8.4113Y-8.1848
X8.4298Y-7.4781
X8.4715Y-8.7706
X8.4724Y-7.1417
X8.4778Y-9.0415
X8.5148Y-7.984
X8.5472Y-6.4685
X8.5523Y-7.534
X8.5668Y-8.6636
X8.5802Y-8.8541
X8.6007Y-8.0742
X8.6696Y-8.7344
X8.689Y-6.4646
X8.7101Y-7.9466
X8.7156Y-8.5754
X8.7196Y-7.4262
X8.7306Y-7.6202
X8.7441Y-7.2874
X8.7795Y-7.4409
X8.8133Y-8.4927
X8.8228Y-6.4646
X8.8263Y-7.3431
X8.933Y-7.614
X8.9463Y-7.447
X8.9593Y-8.3675
X8.9786Y-7.1974
X8.9987Y-7.2647
X9.0074Y-9.2277
X9.0145Y-9.0801
X9.0255Y-8.4502
X9.0782Y-9.4789
X9.0873Y-7.0462
X9.1019Y-7.6553
X9.1038Y-8.2419
X9.1484Y-6.4268
X9.1484Y-6.4661
X9.1484Y-6.5055
X9.1484Y-6.5449
X9.1622Y-6.5927
X9.17Y-8.3344
X9.1704Y-8.9899
X9.1731Y-7.1616
X9.1804Y-6.1572
X9.1834Y-9.1388
X9.1916Y-6.8577
X9.2087Y-9.5512
X9.2295Y-5.9646
X9.2302Y-7.4813
X9.2323Y-6.5354
X9.2323Y-6.5748
X9.2323Y-6.6142
X9.2323Y-6.6535
X9.2323Y-6.6929
X9.2323Y-6.7323
X9.2341Y-6.8986
X9.2421Y-6.4665
X9.2432Y-9.3958
X9.2676Y-7.5332
X9.2717Y-6.5354
X9.2717Y-6.5748
X9.2717Y-6.6142
X9.2717Y-6.6535
X9.2717Y-6.6929
X9.2717Y-6.7323
X9.2786Y-8.151
X9.294Y-7.0025
X9.2975Y-7.6336
X9.311Y-6.5354
X9.311Y-6.5748
X9.311Y-6.6142
X9.311Y-6.6535
X9.311Y-6.6929
X9.311Y-6.7323
X9.3504Y-6.5354
X9.3504Y-6.5748
X9.3504Y-6.6142
X9.3504Y-6.6535
X9.3504Y-6.6929
X9.3504Y-6.7323
X9.3635Y-5.8462
X9.3635Y-5.8777
X9.3898Y-6.5354
X9.3898Y-6.5748
X9.3898Y-6.6142
X9.3898Y-6.6535
X9.3898Y-6.6929
X9.3898Y-6.7323
X9.407Y-6.8088
X9.4219Y-5.9361
X9.4265Y-5.8462
X9.4265Y-5.8816
X9.4265Y-6.1572
X9.4268Y-6.1913
X9.4291Y-6.5354
X9.4291Y-6.5748
X9.4291Y-6.6142
X9.4291Y-6.6535
X9.4291Y-6.6929
X9.4291Y-6.7323
X9.4331Y-5.4952
X9.4339Y-6.2732
X9.4339Y-6.3146
X9.4339Y-6.4583
X9.4621Y-7.4777
X9.4652Y-11.8262
X9.4685Y-6.5354
X9.4685Y-6.5748
X9.4685Y-6.6142
X9.4685Y-6.6535
X9.4685Y-6.6929
X9.4685Y-6.7323
X9.4724Y-5.374
X9.4796Y-6.1572
X9.4796Y-6.2732
X9.4799Y-6.189
X9.4811Y-6.3146
X9.4816Y-5.9367
X9.4855Y-5.8462
X9.4855Y-5.8816
X9.5079Y-6.5354
X9.5079Y-6.5748
X9.5079Y-6.6142
X9.5079Y-6.6535
X9.5079Y-6.6929
X9.5079Y-6.7323
X9.5176Y-10.7702
X9.5276Y-3.8583
X9.5276Y-3.9764
X9.5276Y-4.0945
X9.5276Y-4.2126
X9.5276Y-4.3701
X9.5283Y-6.3126
X9.5287Y-6.1909
X9.5288Y-6.1572
X9.5288Y-6.2732
X9.5328Y-5.8462
X9.5328Y-5.8816
X9.5353Y-5.9353
X9.5425Y-5.3961
X9.5472Y-3.9173
X9.5472Y-4.0354
X9.5472Y-4.1535
X9.555Y-11.6533
X9.5669Y-3.8583
X9.5669Y-3.9764
X9.5669Y-4.0945
X9.5669Y-4.2126
X9.5669Y-4.3701
X9.5684Y-8.148
X9.5684Y-8.1874
X9.5684Y-8.2268
X9.5684Y-8.2661
X9.5706Y-6.2576
X9.58Y-6.1513
X9.5822Y-8.314
X9.584Y-5.8462
X9.5866Y-11.8622
X9.5977Y-10.7362
X9.6004Y-7.8784
X9.6024Y-10.7835
X9.6174Y-6.2576
X9.6178Y-6.1572
X9.6178Y-6.2044
X9.6233Y-5.8462
X9.6233Y-5.8816
X9.643Y-5.9741
X9.6456Y-11.7206
X9.6469Y-6.1158
X9.6471Y-11.4947
X9.6495Y-7.6858
X9.6523Y-8.2567
X9.6523Y-8.2961
X9.6523Y-8.3354
X9.6523Y-8.3748
X9.6523Y-8.4142
X9.6523Y-8.4535
X9.6594Y-5.3748
X9.6621Y-8.1878
X9.6654Y-5.7087
X9.6654Y-5.7382
X9.6654Y-5.7677
X9.6654Y-5.8169
X9.6654Y-5.8465
X9.6654Y-5.876
X9.67Y-10.6821
X9.6772Y-10.7913
X9.6784Y-5.9741
X9.6784Y-6.1158
X9.6916Y-8.2567
X9.6916Y-8.2961
X9.6916Y-8.3354
X9.6916Y-8.3748
X9.6916Y-8.4142
X9.6916Y-8.4535
X9.6983Y-11.3289
X9.7047Y-5.7087
X9.7047Y-5.7382
X9.7047Y-5.7677
X9.7047Y-5.8169
X9.7047Y-5.8465
X9.7047Y-5.876
X9.7047Y-6.3386
X9.7047Y-6.3681
X9.7047Y-6.3976
X9.7047Y-6.4469
X9.7047Y-6.4764
X9.7047Y-6.5059
X9.7102Y-5.4952
X9.7177Y-4.1575
X9.7177Y-4.1969
X9.7177Y-4.2362
X9.7177Y-4.2756
X9.7177Y-4.315
X9.7177Y-4.3543
X9.7177Y-4.3937
X9.7177Y-4.4331
X9.7178Y-6.1158
X9.7218Y-5.9741
X9.7298Y-11.5754
X9.731Y-8.2567
X9.731Y-8.2961
X9.731Y-8.3354
X9.731Y-8.3748
X9.731Y-8.4142
X9.731Y-8.4535
X9.7441Y-5.7087
X9.7441Y-5.7382
X9.7441Y-5.7677
X9.7441Y-5.8169
X9.7441Y-5.8465
X9.7441Y-5.876
X9.7441Y-6.3386
X9.7441Y-6.3681
X9.7441Y-6.3976
X9.7441Y-6.4469
X9.7441Y-6.4764
X9.7441Y-6.5059
X9.7532Y-5.9741
X9.7532Y-6.1158
X9.7571Y-4.1575
X9.7571Y-4.1969
X9.7571Y-4.2362
X9.7571Y-4.2756
X9.7571Y-4.315
X9.7571Y-4.3543
X9.7571Y-4.3937
X9.7571Y-4.4331
X9.7704Y-8.2567
X9.7704Y-8.2961
X9.7704Y-8.3354
X9.7704Y-8.3748
X9.7704Y-8.4142
X9.7704Y-8.4535
X9.7795Y-7.5197
X9.7835Y-5.7087
X9.7835Y-5.7382
X9.7835Y-5.7677
X9.7835Y-5.8169
X9.7835Y-5.8465
X9.7835Y-5.876
X9.7835Y-6.3386
X9.7835Y-6.3681
X9.7835Y-6.3976
X9.7835Y-6.4469
X9.7835Y-6.4764
X9.7835Y-6.5059
X9.7835Y-7.5674
X9.7835Y-7.5989
X9.7965Y-4.1575
X9.7965Y-4.1969
X9.7965Y-4.2362
X9.7965Y-4.2756
X9.7965Y-4.315
X9.7965Y-4.3543
X9.7965Y-4.3937
X9.7965Y-4.4331
X9.7983Y-11.41
X9.8097Y-8.2567
X9.8097Y-8.2961
X9.8097Y-8.3354
X9.8097Y-8.3748
X9.8097Y-8.4142
X9.8097Y-8.4535
X9.8228Y-5.7087
X9.8228Y-5.7382
X9.8228Y-5.7677
X9.8228Y-5.8169
X9.8228Y-5.8465
X9.8228Y-5.876
X9.8228Y-6.3386
X9.8228Y-6.3681
X9.8228Y-6.3976
X9.8228Y-6.4469
X9.8228Y-6.4764
X9.8228Y-6.5059
X9.8358Y-4.1575
X9.8358Y-4.1969
X9.8358Y-4.2362
X9.8358Y-4.2756
X9.8358Y-4.315
X9.8358Y-4.3543
X9.8358Y-4.3937
X9.8358Y-4.4331
X9.8419Y-7.6574
X9.8425Y-7.5197
X9.8465Y-7.5674
X9.8465Y-7.6029
X9.8465Y-7.8784
X9.8468Y-7.9126
X9.8491Y-8.2567
X9.8491Y-8.2961
X9.8491Y-8.3354
X9.8491Y-8.3748
X9.8491Y-8.4142
X9.8491Y-8.4535
X9.8507Y-11.2384
X9.8538Y-7.9945
X9.8538Y-8.0358
X9.8538Y-8.1795
X9.8551Y-5.4403
X9.8622Y-6.3386
X9.8622Y-6.3681
X9.8622Y-6.3976
X9.8622Y-6.4469
X9.8622Y-6.4764
X9.8622Y-6.5059
X9.8752Y-4.1575
X9.8752Y-4.1969
X9.8752Y-4.2362
X9.8752Y-4.2756
X9.8752Y-4.315
X9.8752Y-4.3543
X9.8752Y-4.3937
X9.8752Y-4.4331
X9.8803Y-5.4185
X9.8885Y-8.2567
X9.8885Y-8.2961
X9.8885Y-8.3354
X9.8885Y-8.3748
X9.8885Y-8.4142
X9.8885Y-8.4535
X9.8996Y-7.8784
X9.8996Y-7.9945
X9.8999Y-7.9102
X9.9011Y-8.0358
X9.9016Y-7.5197
X9.9016Y-7.658
X9.9055Y-7.5674
X9.9055Y-7.6029
X9.9146Y-4.1575
X9.9146Y-4.1969
X9.9146Y-4.2362
X9.9146Y-4.2756
X9.9146Y-4.315
X9.9146Y-4.3543
X9.9146Y-4.3937
X9.9146Y-4.4331
X9.9172Y-10.9431
X9.9279Y-8.2567
X9.9279Y-8.2961
X9.9279Y-8.3354
X9.9279Y-8.3748
X9.9279Y-8.4142
X9.9279Y-8.4535
X9.9483Y-8.0339
X9.9487Y-7.9122
X9.9488Y-7.5197
X9.9488Y-7.8784
X9.9488Y-7.9945
X9.9528Y-7.5674
X9.9528Y-7.6029
X9.9553Y-7.6566
X9.9606Y-4.2717
X9.9606Y-4.3898
X9.9606Y-4.5079
X9.9606Y-4.626
X9.9606Y-6.1811
X9.9606Y-6.2205
X9.9606Y-6.2598
X9.9606Y-6.2992
X9.9606Y-6.3386
X9.9606Y-6.378
X9.9606Y-6.4173
X9.9606Y-6.4567
X9.9803Y-4.3307
X9.9803Y-4.4488
X9.9803Y-4.5669
X9.9814Y-10.836
X9.9906Y-7.9788
X10.0Y-4.2717
X10.0Y-4.3898
X10.0Y-4.5079
X10.0Y-4.626
X10.0Y-6.1811
X10.0Y-6.2205
X10.0Y-6.2598
X10.0Y-6.2992
X10.0Y-6.3386
X10.0Y-6.378
X10.0Y-6.4173
X10.0Y-6.4567
X10.0Y-7.5197
X10.0Y-7.8725
X10.0039Y-7.5674
X10.0374Y-7.9788
X10.0378Y-7.8784
X10.0378Y-7.9257
X10.0394Y-6.1811
X10.0394Y-6.2205
X10.0394Y-6.2598
X10.0394Y-6.2992
X10.0394Y-6.3386
X10.0394Y-6.378
X10.0394Y-6.4173
X10.0394Y-6.4567
X10.0394Y-7.5197
X10.0433Y-7.5674
X10.0433Y-7.6029
X10.063Y-7.6954
X10.0669Y-7.8371
X10.0776Y-5.4748
X10.0787Y-6.1811
X10.0787Y-6.2205
X10.0787Y-6.2598
X10.0787Y-6.2992
X10.0787Y-6.3386
X10.0787Y-6.378
X10.0787Y-6.4173
X10.0787Y-6.4567
X10.0971Y-10.7269
X10.0984Y-7.5394
X10.0984Y-7.5689
X10.0984Y-7.5984
X10.0984Y-7.6954
X10.0984Y-7.8371
X10.1154Y-4.622
X10.1154Y-4.6614
X10.1154Y-4.7008
X10.1154Y-4.7402
X10.1168Y-10.9092
X10.1264Y-5.5728
X10.128Y-8.061
X10.128Y-8.0906
X10.128Y-8.1201
X10.128Y-8.1693
X10.128Y-8.1988
X10.128Y-8.2283
X10.1378Y-7.5394
X10.1378Y-7.5689
X10.1378Y-7.5984
X10.1378Y-7.8371
X10.1417Y-7.6954
X10.1547Y-4.622
X10.1547Y-4.6614
X10.1547Y-4.7008
X10.1547Y-4.7402
X10.1673Y-8.061
X10.1673Y-8.0906
X10.1673Y-8.1201
X10.1673Y-8.1693
X10.1673Y-8.1988
X10.1673Y-8.2283
X10.1732Y-7.6954
X10.1732Y-7.8371
X10.1772Y-7.5394
X10.1772Y-7.5689
X10.1772Y-7.5984
X10.179Y-10.5994
X10.1861Y-10.8017
X10.1941Y-4.622
X10.1941Y-4.6614
X10.1941Y-4.7008
X10.1941Y-4.7402
X10.2067Y-8.061
X10.2067Y-8.0906
X10.2067Y-8.1201
X10.2067Y-8.1693
X10.2067Y-8.1988
X10.2067Y-8.2283
X10.2165Y-7.5394
X10.2165Y-7.5689
X10.2165Y-7.5984
X10.2231Y-10.4777
X10.2349Y-10.3537
X10.2374Y-3.8071
X10.2402Y-10.3189
X10.2461Y-8.061
X10.2461Y-8.0906
X10.2461Y-8.1201
X10.2461Y-8.1693
X10.2461Y-8.1988
X10.2461Y-8.2283
X10.2559Y-7.5394
X10.2559Y-7.5689
X10.2559Y-7.5984
X10.2854Y-8.061
X10.2854Y-8.0906
X10.2854Y-8.1201
X10.2854Y-8.1693
X10.2854Y-8.1988
X10.2854Y-8.2283
X10.3019Y-10.6899
X10.315Y-4.311
X10.315Y-4.4291
X10.315Y-4.5472
X10.315Y-4.6654
X10.3346Y-4.3701
X10.3346Y-4.4882
X10.3346Y-4.6063
X10.3458Y-5.4718
X10.3543Y-4.311
X10.3543Y-4.4291
X10.3543Y-4.5472
X10.3543Y-4.6654
X10.3622Y-5.4291
X10.3831Y-7.2764
X10.3893Y-10.5427
X10.4184Y-10.2643
X10.4185Y-7.3626
X10.4337Y-10.4199
X10.5106Y-7.7508
T3
X7.6577Y-5.5267
X7.6577Y-5.5867
X7.6877Y-5.4967
X7.6877Y-5.5567
X7.6877Y-5.6167
X7.7177Y-5.5267
X7.7177Y-5.5867
X7.7477Y-5.4967
X7.7477Y-5.5567
X7.7477Y-5.6167
X7.7778Y-5.5267
X7.7778Y-5.5867
T5
X10.5504Y-4.3657
X10.5504Y-4.4657
X10.5504Y-4.5657
X10.5504Y-4.6657
X10.5504Y-4.7657
X10.5504Y-4.8657
X10.5504Y-4.9657
X10.5504Y-5.0657
T7
X10.4724Y-6.0598
X10.4724Y-6.2598
T4
G00X10.4065Y-5.2906
M15
G01X10.4498Y-5.2906
M16
G05
G00X10.4065Y-5.6307
M15
G01X10.4498Y-5.6307
M16
G05
G00X10.5778Y-5.2906
M15
G01X10.6093Y-5.2906
M16
G05
G00X10.5778Y-5.6307
M15
G01X10.6093Y-5.6307
M16
G05
T6
G00X10.2441Y-6.84
M15
G01X10.2441Y-6.7416
M16
G05
G00X10.313Y-6.6058
M15
G01X10.4114Y-6.6058
M16
G05
G00X10.4803Y-6.7416
M15
G01X10.4803Y-6.84
M16
G05
T0
M30
