%TF.GenerationSoftware,KiCad,Pcbnew,7.0.9*%
%TF.CreationDate,2023-12-11T11:40:32+11:00*%
%TF.ProjectId,design,64657369-676e-42e6-9b69-6361645f7063,v1.1*%
%TF.SameCoordinates,Original*%
%TF.FileFunction,Other,Comment*%
%FSLAX46Y46*%
G04 Gerber Fmt 4.6, Leading zero omitted, Abs format (unit mm)*
G04 Created by KiCad (PCBNEW 7.0.9) date 2023-12-11 11:40:32*
%MOMM*%
%LPD*%
G01*
G04 APERTURE LIST*
%ADD10C,0.150000*%
G04 APERTURE END LIST*
D10*
X261104761Y-169924652D02*
X261104761Y-170734176D01*
X261104761Y-170734176D02*
X261057142Y-170829414D01*
X261057142Y-170829414D02*
X261009523Y-170877033D01*
X261009523Y-170877033D02*
X260914285Y-170924652D01*
X260914285Y-170924652D02*
X260771428Y-170924652D01*
X260771428Y-170924652D02*
X260676190Y-170877033D01*
X261104761Y-170543700D02*
X261009523Y-170591319D01*
X261009523Y-170591319D02*
X260819047Y-170591319D01*
X260819047Y-170591319D02*
X260723809Y-170543700D01*
X260723809Y-170543700D02*
X260676190Y-170496080D01*
X260676190Y-170496080D02*
X260628571Y-170400842D01*
X260628571Y-170400842D02*
X260628571Y-170115128D01*
X260628571Y-170115128D02*
X260676190Y-170019890D01*
X260676190Y-170019890D02*
X260723809Y-169972271D01*
X260723809Y-169972271D02*
X260819047Y-169924652D01*
X260819047Y-169924652D02*
X261009523Y-169924652D01*
X261009523Y-169924652D02*
X261104761Y-169972271D01*
X262009523Y-169924652D02*
X262009523Y-170734176D01*
X262009523Y-170734176D02*
X261961904Y-170829414D01*
X261961904Y-170829414D02*
X261914285Y-170877033D01*
X261914285Y-170877033D02*
X261819047Y-170924652D01*
X261819047Y-170924652D02*
X261676190Y-170924652D01*
X261676190Y-170924652D02*
X261580952Y-170877033D01*
X262009523Y-170543700D02*
X261914285Y-170591319D01*
X261914285Y-170591319D02*
X261723809Y-170591319D01*
X261723809Y-170591319D02*
X261628571Y-170543700D01*
X261628571Y-170543700D02*
X261580952Y-170496080D01*
X261580952Y-170496080D02*
X261533333Y-170400842D01*
X261533333Y-170400842D02*
X261533333Y-170115128D01*
X261533333Y-170115128D02*
X261580952Y-170019890D01*
X261580952Y-170019890D02*
X261628571Y-169972271D01*
X261628571Y-169972271D02*
X261723809Y-169924652D01*
X261723809Y-169924652D02*
X261914285Y-169924652D01*
X261914285Y-169924652D02*
X262009523Y-169972271D01*
X262866666Y-170543700D02*
X262771428Y-170591319D01*
X262771428Y-170591319D02*
X262580952Y-170591319D01*
X262580952Y-170591319D02*
X262485714Y-170543700D01*
X262485714Y-170543700D02*
X262438095Y-170448461D01*
X262438095Y-170448461D02*
X262438095Y-170067509D01*
X262438095Y-170067509D02*
X262485714Y-169972271D01*
X262485714Y-169972271D02*
X262580952Y-169924652D01*
X262580952Y-169924652D02*
X262771428Y-169924652D01*
X262771428Y-169924652D02*
X262866666Y-169972271D01*
X262866666Y-169972271D02*
X262914285Y-170067509D01*
X262914285Y-170067509D02*
X262914285Y-170162747D01*
X262914285Y-170162747D02*
X262438095Y-170257985D01*
X263866666Y-170591319D02*
X263295238Y-170591319D01*
X263580952Y-170591319D02*
X263580952Y-169591319D01*
X263580952Y-169591319D02*
X263485714Y-169734176D01*
X263485714Y-169734176D02*
X263390476Y-169829414D01*
X263390476Y-169829414D02*
X263295238Y-169877033D01*
X264200000Y-169591319D02*
X264819047Y-169591319D01*
X264819047Y-169591319D02*
X264485714Y-169972271D01*
X264485714Y-169972271D02*
X264628571Y-169972271D01*
X264628571Y-169972271D02*
X264723809Y-170019890D01*
X264723809Y-170019890D02*
X264771428Y-170067509D01*
X264771428Y-170067509D02*
X264819047Y-170162747D01*
X264819047Y-170162747D02*
X264819047Y-170400842D01*
X264819047Y-170400842D02*
X264771428Y-170496080D01*
X264771428Y-170496080D02*
X264723809Y-170543700D01*
X264723809Y-170543700D02*
X264628571Y-170591319D01*
X264628571Y-170591319D02*
X264342857Y-170591319D01*
X264342857Y-170591319D02*
X264247619Y-170543700D01*
X264247619Y-170543700D02*
X264200000Y-170496080D01*
X265152381Y-169591319D02*
X265771428Y-169591319D01*
X265771428Y-169591319D02*
X265438095Y-169972271D01*
X265438095Y-169972271D02*
X265580952Y-169972271D01*
X265580952Y-169972271D02*
X265676190Y-170019890D01*
X265676190Y-170019890D02*
X265723809Y-170067509D01*
X265723809Y-170067509D02*
X265771428Y-170162747D01*
X265771428Y-170162747D02*
X265771428Y-170400842D01*
X265771428Y-170400842D02*
X265723809Y-170496080D01*
X265723809Y-170496080D02*
X265676190Y-170543700D01*
X265676190Y-170543700D02*
X265580952Y-170591319D01*
X265580952Y-170591319D02*
X265295238Y-170591319D01*
X265295238Y-170591319D02*
X265200000Y-170543700D01*
X265200000Y-170543700D02*
X265152381Y-170496080D01*
X193948095Y-129219104D02*
X194424285Y-129219104D01*
X193852857Y-129504819D02*
X194186190Y-128504819D01*
X194186190Y-128504819D02*
X194519523Y-129504819D01*
X194852857Y-128838152D02*
X194852857Y-129504819D01*
X194852857Y-128933390D02*
X194900476Y-128885771D01*
X194900476Y-128885771D02*
X194995714Y-128838152D01*
X194995714Y-128838152D02*
X195138571Y-128838152D01*
X195138571Y-128838152D02*
X195233809Y-128885771D01*
X195233809Y-128885771D02*
X195281428Y-128981009D01*
X195281428Y-128981009D02*
X195281428Y-129504819D01*
X195614762Y-128838152D02*
X195995714Y-128838152D01*
X195757619Y-128504819D02*
X195757619Y-129361961D01*
X195757619Y-129361961D02*
X195805238Y-129457200D01*
X195805238Y-129457200D02*
X195900476Y-129504819D01*
X195900476Y-129504819D02*
X195995714Y-129504819D01*
X196710000Y-129457200D02*
X196614762Y-129504819D01*
X196614762Y-129504819D02*
X196424286Y-129504819D01*
X196424286Y-129504819D02*
X196329048Y-129457200D01*
X196329048Y-129457200D02*
X196281429Y-129361961D01*
X196281429Y-129361961D02*
X196281429Y-128981009D01*
X196281429Y-128981009D02*
X196329048Y-128885771D01*
X196329048Y-128885771D02*
X196424286Y-128838152D01*
X196424286Y-128838152D02*
X196614762Y-128838152D01*
X196614762Y-128838152D02*
X196710000Y-128885771D01*
X196710000Y-128885771D02*
X196757619Y-128981009D01*
X196757619Y-128981009D02*
X196757619Y-129076247D01*
X196757619Y-129076247D02*
X196281429Y-129171485D01*
X197186191Y-128838152D02*
X197186191Y-129504819D01*
X197186191Y-128933390D02*
X197233810Y-128885771D01*
X197233810Y-128885771D02*
X197329048Y-128838152D01*
X197329048Y-128838152D02*
X197471905Y-128838152D01*
X197471905Y-128838152D02*
X197567143Y-128885771D01*
X197567143Y-128885771D02*
X197614762Y-128981009D01*
X197614762Y-128981009D02*
X197614762Y-129504819D01*
X198090953Y-128838152D02*
X198090953Y-129504819D01*
X198090953Y-128933390D02*
X198138572Y-128885771D01*
X198138572Y-128885771D02*
X198233810Y-128838152D01*
X198233810Y-128838152D02*
X198376667Y-128838152D01*
X198376667Y-128838152D02*
X198471905Y-128885771D01*
X198471905Y-128885771D02*
X198519524Y-128981009D01*
X198519524Y-128981009D02*
X198519524Y-129504819D01*
X199424286Y-129504819D02*
X199424286Y-128981009D01*
X199424286Y-128981009D02*
X199376667Y-128885771D01*
X199376667Y-128885771D02*
X199281429Y-128838152D01*
X199281429Y-128838152D02*
X199090953Y-128838152D01*
X199090953Y-128838152D02*
X198995715Y-128885771D01*
X199424286Y-129457200D02*
X199329048Y-129504819D01*
X199329048Y-129504819D02*
X199090953Y-129504819D01*
X199090953Y-129504819D02*
X198995715Y-129457200D01*
X198995715Y-129457200D02*
X198948096Y-129361961D01*
X198948096Y-129361961D02*
X198948096Y-129266723D01*
X198948096Y-129266723D02*
X198995715Y-129171485D01*
X198995715Y-129171485D02*
X199090953Y-129123866D01*
X199090953Y-129123866D02*
X199329048Y-129123866D01*
X199329048Y-129123866D02*
X199424286Y-129076247D01*
%TO.C,H6*%
X29200000Y-347000000D02*
G75*
G03*
X29200000Y-347000000I-3200000J0D01*
G01*
%TO.C,H1*%
X29200000Y-220000000D02*
G75*
G03*
X29200000Y-220000000I-3200000J0D01*
G01*
%TO.C,H3*%
X29500000Y-67000000D02*
G75*
G03*
X29500000Y-67000000I-3200000J0D01*
G01*
%TO.C,H2*%
X269200000Y-67000000D02*
G75*
G03*
X269200000Y-67000000I-3200000J0D01*
G01*
%TO.C,H4*%
X269200000Y-346800000D02*
G75*
G03*
X269200000Y-346800000I-3200000J0D01*
G01*
%TO.C,H5*%
X269200000Y-220000000D02*
G75*
G03*
X269200000Y-220000000I-3200000J0D01*
G01*
%TD*%
M02*
